<svg viewBox="0 0 32 32" xml:space="preserve" xmlns="http://www.w3.org/2000/svg"><path d="M25.032 26.16c2.884-2.883 4.184-6.74 3.928-10.51-1.511.013-3.021.021-4.531.034a9.01 9.01 0 0 1-2.594 7.277c-3.535 3.533-9.263 3.533-12.796 0a9.045 9.045 0 0 1 0-12.794c3.015-3.016 7.625-3.446 11.109-1.314-1.181 1.167-2.57 2.549-2.57 2.549-1 1.062.016 1.766.69 1.77h8.828a.613.613 0 0 0 .612-.612V3.804c.041-.825-.865-1.591-1.756-.7l-2.533 2.509C18.112 1.736 10.634 2.175 5.841 6.967c-5.3 5.3-5.3 13.892 0 19.193 5.3 5.299 13.892 5.299 19.191 0z" fill="#ffffff" class="fill-515151"></path></svg>